<svg version="1.1" xmlns="http://www.w3.org/2000/svg" xmlns:xlink="http://www.w3.org/1999/xlink" x="0px" y="0px"
	 viewBox="0 0 180.4 64.8" style="enable-background:new 0 0 180.4 64.8;" xml:space="preserve">
<g>
	<g>
		<path d="M32.7,27.5c0,13.6-6.8,22.4-16.4,22.4C6.7,49.9,0,41.2,0,27.5S6.7,5.1,16.4,5.1C25.9,5.1,32.7,13.9,32.7,27.5z M4.5,27.5
			c0,10.9,4.9,18.3,11.9,18.3s11.8-7.4,11.8-18.3c0-10.8-4.8-18.3-11.8-18.3S4.5,16.7,4.5,27.5z M50.5,64.8h-4.6V0h4.6V64.8z"/>
		<path d="M99.3,12.2H62.4V8.3h16.4V0h4.5v8.3h16V12.2z M95.5,28.4c0,7.3-5.9,12.3-14.5,12.3c-8.7,0-14.6-4.9-14.5-12.3
			C66.4,21,72.3,16.1,81,16.1C89.6,16.1,95.5,21,95.5,28.4z M70.8,28.4c-0.1,5,4.1,8.5,10.2,8.5c6,0,10.1-3.5,10.2-8.5
			C91.1,23.5,87,20,81,19.9C74.9,20,70.7,23.5,70.8,28.4z M117.2,63.2h-43V45h4.6v14.3h38.4V63.2z M115.7,49.4h-4.6V34.9H99v-3.8
			h12.1v-9.5H99v-4h12.1V0h4.6V49.4z"/>
		<path d="M167.8,46.9l-2.6,3.7c-7.4-3.5-14.6-11.2-17.6-20.5c-3,9.7-10.1,18.3-17.3,22.1l-2.8-3.7c8.8-4.3,17.7-16.7,17.8-27.9
			v-9.9h-15.8v-4h36.4v4h-16v9.9C149.8,31.7,158.7,42.9,167.8,46.9z M180.4,64.7h-4.6V0h4.6V64.7z"/>
	</g>
	<g>
		<g>
			<path d="M76.7,28.4c1.9,0,1.9-3,0-3C74.8,25.4,74.8,28.4,76.7,28.4L76.7,28.4z"/>
		</g>
	</g>
	<g>
		<g>
			<path d="M85.1,28.2c1.9,0,1.9-3,0-3C83.1,25.2,83.1,28.2,85.1,28.2L85.1,28.2z"/>
		</g>
	</g>
	<g>
		<g>
			<path d="M78,30.5c0.2,1.4,1.7,1.7,2.9,1.7c1.1,0,2.4-0.5,2.6-1.8c0-0.3-0.1-0.5-0.3-0.6c-0.2-0.1-0.6,0.1-0.6,0.3
				c-0.1,0.7-0.9,1-1.6,1c-0.4,0-0.9,0-1.3-0.1c-0.3-0.1-0.6-0.3-0.7-0.6c0-0.3-0.2-0.5-0.5-0.5C78.3,30,78,30.2,78,30.5L78,30.5z"
				/>
		</g>
	</g>
</g>
</svg>
