<?xml version="1.0" encoding="utf-8"?>
<!-- Generator: Adobe Illustrator 27.0.0, SVG Export Plug-In . SVG Version: 6.00 Build 0)  -->
<svg version="1.1" id="Layer_1" xmlns="http://www.w3.org/2000/svg" xmlns:xlink="http://www.w3.org/1999/xlink" x="0px" y="0px"
	 viewBox="0 0 146.5 51.8" style="enable-background:new 0 0 146.5 51.8;" xml:space="preserve">
<g>
	<path d="M12.9,4.2c2.5,0,4.7,0.7,6.7,2.2c1.9,1.5,3.4,3.5,4.6,6.2c1.1,2.6,1.7,5.8,1.7,9.4c0,3.6-0.6,6.7-1.7,9.4
		c-1.1,2.7-2.6,4.7-4.6,6.2c-1.9,1.4-4.2,2.2-6.7,2.2c-2.5,0-4.7-0.7-6.6-2.2c-2-1.5-3.5-3.5-4.6-6.2S0,25.6,0,22
		c0-3.6,0.6-6.8,1.7-9.4C2.8,10,4.3,7.9,6.2,6.4C8.2,5,10.4,4.2,12.9,4.2z M12.9,7c-1.9,0-3.6,0.6-5.1,1.9c-1.5,1.3-2.6,3.1-3.5,5.3
		C3.4,16.4,3,19.1,3,22c0,2.9,0.4,5.5,1.2,7.8c0.8,2.3,2,4.1,3.5,5.3c1.5,1.3,3.2,1.9,5.1,1.9s3.6-0.6,5.1-1.9
		c1.5-1.3,2.6-3.1,3.5-5.3c0.8-2.3,1.2-4.9,1.2-7.8c0-3-0.4-5.6-1.2-7.8c-0.8-2.2-2-4-3.5-5.3C16.5,7.6,14.8,7,12.9,7z M36.7,0h3.1
		v51.8h-3.1V0z"/>
	<path d="M51.3,6.9h29.3v2.6H51.3V6.9z M65.9,13c2.3,0,4.3,0.4,6,1.2c1.7,0.8,3,1.9,4,3.4c1,1.4,1.5,3.2,1.5,5.1
		c0,1.9-0.5,3.6-1.5,5.1c-1,1.5-2.3,2.6-4,3.4c-1.7,0.8-3.7,1.2-6,1.2c-2.2,0-4.2-0.4-5.9-1.2c-1.7-0.8-3.1-2-4-3.4
		c-1-1.5-1.5-3.2-1.5-5.1c0-2,0.5-3.7,1.5-5.1c1-1.5,2.3-2.6,4-3.4C61.7,13.4,63.7,13,65.9,13z M65.9,15.5c-2.5,0-4.6,0.7-6.1,2
		c-1.6,1.4-2.3,3.1-2.3,5.2s0.8,3.8,2.3,5.2c1.6,1.4,3.6,2,6.1,2c2.6,0,4.6-0.7,6.2-2c1.6-1.4,2.3-3.1,2.3-5.2s-0.8-3.8-2.3-5.2
		C70.5,16.2,68.5,15.5,65.9,15.5z M60.7,36.1h3.1v13h-3.1V36.1z M60.7,47.8h33.9v2.7H60.7V47.8z M64.5,0.1h3.1v8.6h-3.1V0.1z
		 M80.2,14.3h11.4V17H80.2V14.3z M80.2,25.1h11.4v2.6H80.2V25.1z M90.2,0.1h3.1v39.4h-3.1V0.1z"/>
	<path d="M119,7h2.6v10c0,2.6-0.4,5.1-1.3,7.6c-0.9,2.5-2,4.9-3.4,7.2c-1.4,2.2-3,4.2-4.8,5.9c-1.8,1.7-3.6,3-5.4,4l-1.9-2.5
		c1.7-0.8,3.4-2,5.1-3.6c1.7-1.5,3.2-3.3,4.6-5.4c1.4-2,2.5-4.2,3.3-6.5c0.8-2.3,1.2-4.5,1.2-6.8V7z M106.2,5.5H135v2.7h-28.8V5.5z
		 M119.5,7h2.6v10c0,2.2,0.4,4.4,1.2,6.6c0.8,2.2,2,4.2,3.4,6.1s3,3.5,4.6,5c1.7,1.5,3.4,2.6,5.1,3.3l-1.8,2.5
		c-1.9-0.9-3.7-2.2-5.5-3.7c-1.8-1.6-3.4-3.4-4.9-5.5s-2.6-4.4-3.5-6.8c-0.9-2.4-1.3-4.9-1.3-7.5V7z M143.4,0.1h3.1v51.7h-3.1V0.1z"
		/>
</g>
</svg>
