<?xml version="1.0" encoding="utf-8"?>
<!-- Generator: Adobe Illustrator 27.0.0, SVG Export Plug-In . SVG Version: 6.00 Build 0)  -->
<svg version="1.1" id="Layer_1" xmlns="http://www.w3.org/2000/svg" xmlns:xlink="http://www.w3.org/1999/xlink" x="0px" y="0px"
	 viewBox="0 0 148.5 53.2" style="enable-background:new 0 0 148.5 53.2;" xml:space="preserve">
<g>
	<path d="M13.7,3.9c2.6,0,5,0.8,7,2.3c2.1,1.5,3.7,3.7,4.8,6.5c1.2,2.8,1.7,6.1,1.7,9.9c0,3.8-0.6,7.1-1.7,9.9
		c-1.2,2.8-2.8,5-4.8,6.5c-2.1,1.5-4.4,2.3-7,2.3c-2.6,0-5-0.8-7-2.3c-2.1-1.5-3.7-3.7-4.9-6.5C0.6,29.8,0,26.4,0,22.6
		c0-3.8,0.6-7.1,1.8-9.9C2.9,10,4.6,7.8,6.6,6.3C8.7,4.7,11.1,3.9,13.7,3.9z M13.7,9.5c-1.5,0-2.9,0.5-4.1,1.6
		c-1.2,1-2.1,2.6-2.8,4.5c-0.7,2-1,4.3-1,7.1c0,2.8,0.3,5.2,1,7.1c0.7,2,1.6,3.5,2.8,4.6c1.2,1.1,2.5,1.6,4.1,1.6
		c1.5,0,2.9-0.5,4.1-1.6c1.2-1.1,2.1-2.6,2.7-4.6c0.7-2,1-4.3,1-7.1c0-2.7-0.3-5.1-1-7.1c-0.7-2-1.6-3.5-2.7-4.5
		C16.6,10,15.2,9.5,13.7,9.5z M35.8,0.1h6.1v53.1h-6.1V0.1z"/>
	<path d="M51.7,6.1h29.4V11H51.7V6.1z M66.6,13.5c2.4,0,4.5,0.4,6.3,1.3c1.8,0.9,3.3,2,4.3,3.6s1.6,3.3,1.6,5.4c0,2-0.5,3.8-1.6,5.3
		c-1,1.5-2.5,2.8-4.3,3.6c-1.8,0.9-4,1.3-6.3,1.3c-2.4,0-4.5-0.4-6.3-1.3c-1.8-0.9-3.3-2.1-4.3-3.6c-1-1.5-1.6-3.3-1.6-5.3
		c0-2,0.5-3.8,1.6-5.4s2.5-2.7,4.3-3.6C62.2,13.9,64.3,13.5,66.6,13.5z M66.7,18.1c-1.9,0-3.5,0.5-4.7,1.5c-1.2,1-1.8,2.4-1.8,4.1
		c0,1.7,0.6,3,1.8,4c1.2,1,2.7,1.5,4.7,1.5c1.9,0,3.4-0.5,4.6-1.5c1.2-1,1.8-2.3,1.8-4c0-1.7-0.6-3.1-1.8-4.1
		C70.1,18.6,68.6,18.1,66.7,18.1z M61,37.1h6.1v12.3H61V37.1z M61,47.1h35.7V52H61V47.1z M63.7,0h6.1v9.2h-6.1V0z M81.4,13.8h10.4
		v4.9H81.4V13.8z M81.4,25h10.4v4.8H81.4V25z M89.4,0.1h6.1v40.4h-6.1V0.1z"/>
	<path d="M118.4,8h4.9v7.4c0,2.9-0.3,5.8-1,8.6c-0.7,2.8-1.7,5.4-3,7.9c-1.3,2.5-2.9,4.7-4.8,6.6c-1.9,1.9-3.9,3.4-6.1,4.5l-3.5-4.8
		c2-1,3.9-2.3,5.6-3.9c1.7-1.6,3.1-3.5,4.3-5.5c1.2-2.1,2.1-4.2,2.8-6.5c0.7-2.3,1-4.6,1-6.8V8z M106.6,5.3h29.7v5h-29.7V5.3z
		 M119.7,8h4.9v7.4c0,2.2,0.3,4.4,1,6.6c0.7,2.2,1.6,4.2,2.8,6.1c1.2,1.9,2.6,3.7,4.3,5.2c1.7,1.5,3.5,2.7,5.6,3.6l-3.4,4.8
		c-2.3-1-4.4-2.5-6.3-4.2c-1.9-1.8-3.5-3.8-4.8-6.2c-1.3-2.3-2.4-4.9-3.1-7.5c-0.7-2.7-1.1-5.5-1.1-8.3V8z M142.5,0.1h6.1v53h-6.1
		V0.1z"/>
</g>
</svg>
